<svg width="11" height="8" viewBox="0 0 11 8" fill="none" xmlns="http://www.w3.org/2000/svg">
<path d="M4.8645 7.54751C4.76605 7.54771 4.66853 7.52847 4.57754 7.49089C4.48654 7.45331 4.40386 7.39813 4.33425 7.32851L1.15275 4.14626C1.08107 4.07713 1.02388 3.99441 0.984505 3.90293C0.945135 3.81146 0.924377 3.71306 0.923442 3.61348C0.922507 3.51389 0.941413 3.41512 0.979059 3.32292C1.0167 3.23073 1.07233 3.14695 1.1427 3.07648C1.21307 3.00601 1.29677 2.95026 1.38892 2.91249C1.48106 2.87471 1.57981 2.85566 1.67939 2.85646C1.77897 2.85725 1.8774 2.87787 1.96893 2.91711C2.06046 2.95635 2.14326 3.01343 2.2125 3.08501L4.86375 5.73626L9.6375 0.964012C9.77813 0.823282 9.96891 0.74418 10.1679 0.74411C10.3668 0.74404 10.5576 0.823006 10.6984 0.963637C10.8391 1.10427 10.9182 1.29504 10.9183 1.494C10.9183 1.69295 10.8394 1.88378 10.6987 2.02451L5.39475 7.32851C5.32513 7.39813 5.24246 7.45331 5.15146 7.49089C5.06047 7.52847 4.96295 7.54771 4.8645 7.54751Z" fill="black"/>
</svg>
